<svg width="42" height="37" viewBox="0 0 42 37" fill="none" xmlns="http://www.w3.org/2000/svg">
<path d="M36.47 5.0675C35.5761 4.17326 34.5149 3.46388 33.3468 2.9799C32.1788 2.49591 30.9268 2.2468 29.6625 2.2468C28.3981 2.2468 27.1461 2.49591 25.9781 2.9799C24.81 3.46388 23.7488 4.17326 22.855 5.0675L21 6.9225L19.145 5.0675C17.3395 3.26204 14.8908 2.24774 12.3375 2.24774C9.78416 2.24774 7.33542 3.26204 5.52996 5.0675C3.7245 6.87296 2.71021 9.32169 2.71021 11.875C2.71021 14.4283 3.7245 16.877 5.52996 18.6825L21 34.1525L36.47 18.6825C37.3642 17.7887 38.0736 16.7274 38.5576 15.5594C39.0415 14.3913 39.2907 13.1394 39.2907 11.875C39.2907 10.6106 39.0415 9.35868 38.5576 8.19063C38.0736 7.02257 37.3642 5.96132 36.47 5.0675Z" stroke="#F3F3F3" stroke-width="4" stroke-linecap="round" stroke-linejoin="round"/>
</svg>
