<svg width="36" height="40" viewBox="0 0 36 40" fill="none" xmlns="http://www.w3.org/2000/svg">
<path d="M2.25 9.5L7.5 2.5H28.5L33.75 9.5M2.25 9.5V34C2.25 34.9283 2.61875 35.8185 3.27513 36.4749C3.9315 37.1313 4.82174 37.5 5.75 37.5H30.25C31.1783 37.5 32.0685 37.1313 32.7249 36.4749C33.3813 35.8185 33.75 34.9283 33.75 34V9.5M2.25 9.5H33.75M25 16.5C25 18.3565 24.2625 20.137 22.9497 21.4497C21.637 22.7625 19.8565 23.5 18 23.5C16.1435 23.5 14.363 22.7625 13.0503 21.4497C11.7375 20.137 11 18.3565 11 16.5" stroke="#F3F3F3" stroke-width="4" stroke-linecap="round" stroke-linejoin="round"/>
</svg>
